PathFileType	4	(X/Y/Z)	..\data\2015007\dynamic\2015007_C4_03.trc
DataRate	CameraRate	NumFrames	NumMarkers	Units	OrigDataRate	OrigDataStartFrame	OrigNumFrames
100.000000	100.000000	4	52	mm	100.000000	124	166
Frame#	Time	L_IAS			L_IPS			R_IPS			R_IAS			L_FTC			L_FLE			L_FME			L_FAX			L_TTC			L_FAL			L_TAM			L_FCC			L_FM1			L_FM2			L_FM5			R_FTC			R_FLE			R_FME			R_FAX			R_TTC			R_FAL			R_TAM			R_FCC			R_FM1			R_FM2			R_FM5			CV7			TV10			SXS			SJN			L_SIA			L_SRS			L_SAA			L_SAE			L_HLE			L_HME			L_UOA			L_RSP			L_UHE			L_HM2			L_HM5			R_SIA			R_SRS			R_SAA			R_SAE			R_HLE			R_HME			R_UOA			R_RSP			R_UHE			R_HM2			R_HM5			
		X1	Y1	Z1	X2	Y2	Z2	X3	Y3	Z3	X4	Y4	Z4	X5	Y5	Z5	X6	Y6	Z6	X7	Y7	Z7	X8	Y8	Z8	X9	Y9	Z9	X10	Y10	Z10	X11	Y11	Z11	X12	Y12	Z12	X13	Y13	Z13	X14	Y14	Z14	X15	Y15	Z15	X16	Y16	Z16	X17	Y17	Z17	X18	Y18	Z18	X19	Y19	Z19	X20	Y20	Z20	X21	Y21	Z21	X22	Y22	Z22	X23	Y23	Z23	X24	Y24	Z24	X25	Y25	Z25	X26	Y26	Z26	X27	Y27	Z27	X28	Y28	Z28	X29	Y29	Z29	X30	Y30	Z30	X31	Y31	Z31	X32	Y32	Z32	X33	Y33	Z33	X34	Y34	Z34	X35	Y35	Z35	X36	Y36	Z36	X37	Y37	Z37	X38	Y38	Z38	X39	Y39	Z39	X40	Y40	Z40	X41	Y41	Z41	X42	Y42	Z42	X43	Y43	Z43	X44	Y44	Z44	X45	Y45	Z45	X46	Y46	Z46	X47	Y47	Z47	X48	Y48	Z48	X49	Y49	Z49	X50	Y50	Z50	X51	Y51	Z51	X52	Y52	Z52	

125	1.24	209.6501007080079	888.3903808593752	106.1506118774415	1.94112670421598	901.4478759765627	197.0814514160157	17.14299392700192	912.302185058594	301.5397949218751	238.1275329589844	907.6534423828127	350.9726867675782	121.0982666015625	781.2714843750002	55.19463348388675	135.297592163086	418.8368225097657	90.95429229736331	159.669921875	390.0340576171876	209.1064758300782	92.35103607177734	381.7201232910157	87.31035614013675	130.6866607666016	333.9666442871094	128.9645690917969	-153.6493835449219	179.4241027832032	136.1258850097656	-121.1798553466797	153.3003540039063	208.6274871826172	-203.4559783935548	176.0946350097657	200.6818389892578	-120.6349334716797	35.06803512573243	182.4565277099609	-116.1931381225586	48.71147918701173	136.7691192626953	-162.8999786376953	78.49729156494142	103.9058303833008	163.6873779296875	805.3554687500002	421.9475402832032	278.6224365234375	445.2664794921876	345.2333374023439	250.3339080810547	430.2322387695314	222.5282287597657	271.5560607910156	388.7229919433595	351.2081298828126	314.1827087402344	384.1803283691407	298.4566040039064	240.2438507080078	62.75527191162111	321.6114196777345	260.9714660644531	77.18131256103517	237.8900299072266	194.1233673095703	15.38338851928711	273.3174743652344	371.7225646972656	19.58758735656739	245.2794494628907	369.7205810546875	31.08160591125489	291.5692749023439	320.7854309082031	10.8571138381958	344.8275756835939	99.27982330322266	1399.187255859375	251.2255859375001	4.521559238433811	1162.05078125	227.3517761230469	278.2536621093751	1067.106567382813	229.7070312500001	216.4647521972657	1318.008544921875	240.9397430419923	4.663539409637434	1213.078735351563	144.3637390136719	43.58320617675781	1341.496826171875	141.1940155029297	90.18978118896484	1347.560180664063	79.52286529541018	140.6656341552735	1354.820434570313	68.38248443603518	134.8965148925782	1046.276245117188	-19.77157783508299	107.1659851074219	1031.614990234375	53.65094375610354	109.7164993286133	1017.139038085938	3.012770891189589	265.4685974121094	842.3284912109377	5.521970272064243	200.1397094726563	827.8745727539065	-42.49172210693358	300.0846252441407	787.1436157226565	-6.335026741027797	213.0843811035157	767.2849121093751	-46.78226470947263	2.053314685821496	1197.131713867188	308.4679870605469	41.99097061157223	1321.493041992188	323.1959533691407	93.55870819091794	1320.588745117188	396.5909729003907	140.00439453125	1324.694580078125	415.2086791992189	107.3201293945312	1008.999389648438	476.1819152832032	67.83786010742183	1000.460815429688	414.771697998047	76.55752563476558	983.135681152344	459.7598266601564	170.9154510498047	788.1626586914065	473.3435058593751	124.6432800292968	794.4844970703127	514.8524169921876	191.792739868164	709.1604003906251	484.8384399414064	122.5904998779296	726.0296630859376	529.6589965820314	
126	1.25	220.4681243896485	889.9136962890627	107.0763626098633	12.64215660095213	902.7380981445315	198.677474975586	28.12149429321286	913.4409179687502	302.9682312011719	249.3042907714844	908.7065429687502	352.2370605468751	132.8152313232422	782.762878417969	56.41195297241214	156.8178100585938	420.8087158203126	90.75077819824222	183.6332244873047	391.4822998046876	208.6322174072266	114.2280807495117	384.1245117187501	87.31414031982425	153.5910034179688	335.9229736328126	128.3014678955079	-131.3951721191407	182.3440551757813	136.6517791748047	-98.33547973632818	155.2895660400391	208.6040191650391	-181.0379791259766	177.9015045166016	201.6024627685547	-97.43084716796881	37.35992050170899	179.2996978759766	-93.75102996826175	51.80934524536134	134.138427734375	-140.9166564941407	82.62217712402345	102.6034088134766	174.3332977294922	806.3047485351565	422.9969482421876	283.727783203125	444.6517639160157	345.5246887207032	255.5589294433594	430.1634521484376	222.9261474609376	275.6242370605469	388.1427612304689	351.3761291503907	318.4299621582031	383.1836547851563	298.8402404785157	240.2851104736328	62.78622817993165	321.3403625488282	261.0612182617188	77.10767364501955	237.5905303955079	193.95263671875	15.47615242004395	273.1671447753907	371.7476196289062	19.57313537597657	245.1070404052736	369.788330078125	31.21404075622559	291.6551513671876	320.6185913085938	11.06353378295899	344.9538879394532	110.4764175415039	1400.578735351563	251.9104919433594	15.37933921813962	1163.513061523438	228.5188293457032	288.6955871582032	1068.086547851563	230.093978881836	227.6424713134766	1319.210815429688	241.2779541015626	15.41077136993407	1214.40087890625	145.5533447265625	54.4200553894043	1342.769287109375	142.106201171875	100.8163833618164	1348.799560546875	80.26826477050784	151.2828521728516	1355.966430664063	68.93711090087893	143.3544616699219	1047.274780273438	-18.65520095825194	115.481430053711	1033.130493164063	54.98086929321292	117.3087768554688	1018.700378417969	4.398989200592056	270.3817138671876	841.2315063476565	6.555171489715611	205.0155639648438	828.0112304687502	-41.65435791015623	303.9892272949219	785.3094482421877	-5.249382972717249	216.7933502197266	767.2326660156251	-46.05600357055662	13.34110927581784	1198.673828125	309.7432556152344	53.42236328124997	1323.013916015625	324.1702575683594	105.3019714355469	1322.168090820313	397.3902282714845	151.8955383300781	1326.227905273438	415.787811279297	121.3824234008789	1010.290222167969	477.3851318359376	81.41738128662105	1001.389221191406	416.248260498047	90.64451599121089	984.1398925781252	461.2772827148439	186.938232421875	790.0780029296877	474.2907714843751	140.9637603759765	796.0025634765627	515.9959106445314	208.7854919433594	711.3740844726564	485.8449707031251	139.5954437255859	727.5646972656251	530.9681396484376	
127	1.26	231.0570068359376	891.801208496094	107.7697296142579	23.22353553771971	904.2366943359377	200.3650207519532	39.06967926025388	914.6066894531252	304.4640808105469	260.3807678222656	909.6572875976565	353.3984985351564	144.2494812011719	784.5935668945315	57.49971389770511	178.2617950439453	423.2041931152345	90.57940673828129	207.1072540283203	393.5623779296876	208.2591247558595	136.0204010009766	386.8302612304689	87.36291503906253	176.8437957763672	338.3882446289063	127.5953216552735	-108.1241073608399	184.1832122802735	137.1194000244141	-74.46482849121098	156.5725250244141	208.6096191406251	-157.7333374023438	178.2056427001953	202.328598022461	-71.87122344970707	39.2403678894043	176.4184722900391	-69.02907562255862	54.48640060424806	131.6924285888672	-116.8721160888672	85.59423828125001	101.387077331543	184.7662658691406	807.118835449219	423.949432373047	288.1571655273438	444.0091247558595	345.8784484863282	260.5402221679688	430.0390625000001	223.3121795654298	279.0871276855469	387.5564880371095	351.5914001464845	322.1393127441406	382.1888732910157	299.3105468750001	240.2423095703125	62.7651710510254	321.0877380371095	261.0732116699219	77.01878356933595	237.3557281494141	193.6750640869141	15.59137058258057	273.0052490234376	371.6965637207031	19.55098915100098	244.9834289550782	369.7517700195312	31.27843093872071	291.7211303710939	320.4119567871094	11.16004180908203	345.0238647460939	121.5432739257812	1402.042846679688	252.5570526123048	26.15274429321287	1165.0185546875	229.7856903076172	298.7751770019532	1069.165893554688	230.2725677490235	238.6873321533203	1320.491577148438	241.5652618408204	26.00536155700683	1215.735717773438	146.8275299072266	65.09090423583984	1344.051391601563	143.0439453125	111.2350616455078	1350.02880859375	80.98538970947268	161.6732635498047	1357.13818359375	69.41079711914065	151.681640625	1048.34912109375	-17.65124130249022	123.5250778198242	1034.738403320313	56.16536331176761	124.6840209960938	1020.35009765625	5.693554401397721	274.9181823730469	840.2327880859377	7.632374286651647	209.7285766601563	828.322692871094	-40.89008331298826	307.6700439453126	783.6526489257815	-4.098099231719934	220.3542633056641	767.3505859375001	-45.37268447875974	24.48185348510739	1200.32666015625	311.1023864746094	64.74580383300778	1324.627685546875	325.1395263671876	116.9617004394531	1323.871215820313	398.1651000976564	163.7144165039062	1327.88671875	416.3186950683595	135.4917755126953	1011.693115234375	478.5251770019532	95.09095001220699	1002.37939453125	417.6701660156251	104.8006973266601	985.2226562500002	462.7305297851564	203.1718292236328	792.167663574219	475.106170654297	157.4915161132812	797.6450805664065	517.0175170898439	226.0599212646484	713.7863159179689	486.6987304687501	156.8903045654297	729.2409057617189	532.1418457031251	
128	1.27	241.4579467773438	894.0275878906252	108.2729644775391	33.72241592407225	905.8965454101565	202.0837707519532	49.99451828002928	915.8161621093752	305.9956970214844	271.3555603027344	910.5322265625002	354.4518127441407	155.4787139892578	786.6810302734377	58.44744491577152	199.5790405273438	425.9536132812501	90.42873382568364	230.0300598144532	396.1861267089845	207.969223022461	157.6997985839844	389.7366333007814	87.43264007568362	200.3196258544922	341.2946166992188	126.8392181396485	-83.93237304687503	184.8728485107422	137.4954681396485	-49.64086151123051	157.0898895263672	208.6126403808594	-133.5908355712891	177.0252075195313	202.8337860107422	-44.20523071289065	40.60134887695313	173.9286193847657	-42.23536300659182	56.58919143676759	129.5431213378907	-90.93374633789065	87.2786102294922	100.3017730712891	194.9727630615234	807.820983886719	424.8001403808595	291.9967651367188	443.3778076171876	346.3068847656251	265.3085937500001	429.8802795410157	223.700897216797	282.0440979003906	386.9985961914064	351.8729553222657	325.3778991699219	381.2254638671876	299.8669433593751	240.1666259765625	62.70833587646486	320.8668518066407	261.0433654785156	76.92596435546876	237.1982879638673	193.3331909179688	15.74861145019532	272.8506164550782	371.5998840332031	19.51035308837891	244.9011383056642	369.6545715332031	31.26912498474122	291.7663879394532	320.1986999511719	11.15630722045899	345.0513000488282	132.4880065917969	1403.5546875	253.1703338623048	36.86962890624998	1166.539672851563	231.1509704589844	308.5564880371094	1070.36474609375	230.2667541503907	249.6062164306641	1321.841796875	241.8168334960938	36.47121047973631	1217.058959960938	148.1803131103516	75.60970306396484	1345.322631835938	144.0111389160157	121.4660797119141	1351.231689453125	81.68017578125003	171.8509521484375	1358.326293945313	69.81657409667972	159.8619537353516	1049.492797851563	-16.74917602539061	131.3002166748047	1036.423828125	57.21992874145511	131.8709716796875	1022.073608398438	6.902193546295184	279.1007080078126	839.3379516601565	8.745014190673864	214.2866668701172	828.7886962890627	-40.17869949340818	311.1650085449219	782.190124511719	-2.904847383499108	223.7865753173829	767.6267089843751	-44.71731185913084	35.50074386596677	1202.052734375	312.5357666015626	75.96791076660153	1326.303466796875	326.1021728515626	128.5341796875	1325.673461914063	398.9175109863282	175.4501800537109	1329.654907226563	416.809051513672	149.6298370361328	1013.197875976563	479.6044006347657	108.8486862182617	1003.427185058594	419.0372924804689	119.0101776123047	986.374206542969	464.1148986816407	219.5958404541016	794.4251708984377	475.7802734375001	174.2005310058593	799.4041137695315	517.9089355468751	243.5859985351562	716.3880004882814	487.3801269531252	174.4480895996093	731.0512695312501	533.1619262695314	
